<svg width="371" height="107" viewBox="0 0 371 107" fill="none" xmlns="http://www.w3.org/2000/svg">
<path fill-rule="evenodd" clip-rule="evenodd" d="M198.386 86.8643C199.574 88.7261 200.25 90.8672 200.25 93.1453C200.25 100.325 193.534 106.145 185.25 106.145C176.966 106.145 170.25 100.325 170.25 93.1453C170.25 90.8672 170.926 88.7261 172.114 86.8643H12.5C5.87258 86.8643 0.5 81.4917 0.5 74.8643V12.8643C0.5 6.23684 5.87258 0.864258 12.5 0.864258H358.5C365.127 0.864258 370.5 6.23684 370.5 12.8643V74.8643C370.5 81.4917 365.127 86.8643 358.5 86.8643H198.386Z" fill="#C1EB60"/>
<path d="M172.732 55.2822C172.732 56.8291 173.645 57.55 174.718 57.55C175.181 57.55 175.671 57.4059 176.135 57.1436L196.05 45.5556C197.281 44.8478 197.732 44.3497 197.732 43.55C197.732 42.7373 197.281 42.2392 196.05 41.5313L176.135 29.9433C175.671 29.6811 175.181 29.55 174.718 29.55C173.645 29.55 172.732 30.2579 172.732 31.8047V55.2822Z" fill="white"/>
</svg>
