<svg width="48" height="48" viewBox="0 0 48 48" fill="none" xmlns="http://www.w3.org/2000/svg">
<mask id="path-1-inside-1_858_9581" fill="white">
<path fill-rule="evenodd" clip-rule="evenodd" d="M5.33325 15C5.33325 13.8954 6.22868 13 7.33325 13H39.9999C41.1045 13 41.9999 13.8954 41.9999 15V21.4065C41.7132 21.3051 41.4046 21.25 41.0832 21.25C39.5644 21.25 38.3332 22.4812 38.3332 24C38.3332 25.5188 39.5644 26.75 41.0832 26.75C41.4046 26.75 41.7132 26.6949 41.9999 26.5935V33C41.9999 34.1046 41.1045 35 39.9999 35H7.33325C6.22868 35 5.33325 34.1046 5.33325 33V26.5935C5.61997 26.6949 5.92851 26.75 6.24992 26.75C7.76871 26.75 8.99992 25.5188 8.99992 24C8.99992 22.4812 7.76871 21.25 6.24992 21.25C5.92851 21.25 5.61997 21.3051 5.33325 21.4065V15Z"/>
</mask>
<path fill-rule="evenodd" clip-rule="evenodd" d="M5.33325 15C5.33325 13.8954 6.22868 13 7.33325 13H39.9999C41.1045 13 41.9999 13.8954 41.9999 15V21.4065C41.7132 21.3051 41.4046 21.25 41.0832 21.25C39.5644 21.25 38.3332 22.4812 38.3332 24C38.3332 25.5188 39.5644 26.75 41.0832 26.75C41.4046 26.75 41.7132 26.6949 41.9999 26.5935V33C41.9999 34.1046 41.1045 35 39.9999 35H7.33325C6.22868 35 5.33325 34.1046 5.33325 33V26.5935C5.61997 26.6949 5.92851 26.75 6.24992 26.75C7.76871 26.75 8.99992 25.5188 8.99992 24C8.99992 22.4812 7.76871 21.25 6.24992 21.25C5.92851 21.25 5.61997 21.3051 5.33325 21.4065V15Z" fill="url(#paint0_linear_858_9581)"/>
<path d="M41.9999 21.4065L41.0001 24.235L44.9999 25.6488V21.4065H41.9999ZM41.9999 26.5935H44.9999V22.3512L41.0001 23.765L41.9999 26.5935ZM5.33325 26.5935L6.333 23.765L2.33325 22.3513L2.33325 26.5935H5.33325ZM5.33325 21.4065H2.33325V25.6487L6.333 24.235L5.33325 21.4065ZM7.33325 10C4.57183 10 2.33325 12.2386 2.33325 15H8.33325C8.33325 15.5523 7.88554 16 7.33325 16V10ZM39.9999 10H7.33325V16H39.9999V10ZM44.9999 15C44.9999 12.2386 42.7613 10 39.9999 10V16C39.4476 16 38.9999 15.5523 38.9999 15H44.9999ZM44.9999 21.4065V15H38.9999V21.4065H44.9999ZM41.0832 24.25C41.0594 24.25 41.0301 24.2456 41.0001 24.235L42.9997 18.578C42.3963 18.3647 41.7499 18.25 41.0832 18.25V24.25ZM41.3332 24C41.3332 24.1381 41.2213 24.25 41.0832 24.25V18.25C37.9076 18.25 35.3332 20.8244 35.3332 24H41.3332ZM41.0832 23.75C41.2213 23.75 41.3332 23.8619 41.3332 24H35.3332C35.3332 27.1756 37.9076 29.75 41.0832 29.75V23.75ZM41.0001 23.765C41.0301 23.7544 41.0594 23.75 41.0832 23.75V29.75C41.7499 29.75 42.3963 29.6353 42.9997 29.422L41.0001 23.765ZM44.9999 33V26.5935H38.9999V33H44.9999ZM39.9999 38C42.7613 38 44.9999 35.7614 44.9999 33H38.9999C38.9999 32.4477 39.4476 32 39.9999 32V38ZM7.33325 38H39.9999V32H7.33325V38ZM2.33325 33C2.33325 35.7614 4.57183 38 7.33325 38V32C7.88554 32 8.33325 32.4477 8.33325 33H2.33325ZM2.33325 26.5935V33H8.33325V26.5935H2.33325ZM6.24992 23.75C6.27378 23.75 6.30308 23.7544 6.333 23.765L4.3335 29.422C4.93686 29.6353 5.58324 29.75 6.24992 29.75V23.75ZM5.99992 24C5.99992 23.8619 6.11185 23.75 6.24992 23.75V29.75C9.42556 29.75 11.9999 27.1756 11.9999 24H5.99992ZM6.24992 24.25C6.11185 24.25 5.99992 24.1381 5.99992 24H11.9999C11.9999 20.8244 9.42556 18.25 6.24992 18.25V24.25ZM6.333 24.235C6.30308 24.2456 6.27378 24.25 6.24992 24.25V18.25C5.58324 18.25 4.93686 18.3647 4.3335 18.578L6.333 24.235ZM2.33325 15V21.4065H8.33325V15H2.33325Z" fill="#1F1F1F" mask="url(#path-1-inside-1_858_9581)"/>
<path d="M26.9999 14L26.9999 34" stroke="#1F1F1F" stroke-width="3"/>
<defs>
<linearGradient id="paint0_linear_858_9581" x1="4.96654" y1="14.65" x2="42.3665" y2="32.25" gradientUnits="userSpaceOnUse">
<stop stop-color="white"/>
<stop offset="0.882252" stop-color="#F5FFCE"/>
</linearGradient>
</defs>
</svg>
