<svg width="371" height="107" viewBox="0 0 371 107" fill="none" xmlns="http://www.w3.org/2000/svg">
<path fill-rule="evenodd" clip-rule="evenodd" d="M198.386 86.8643C199.574 88.7261 200.25 90.8672 200.25 93.1453C200.25 100.325 193.534 106.145 185.25 106.145C176.966 106.145 170.25 100.325 170.25 93.1453C170.25 90.8672 170.926 88.7261 172.114 86.8643H12.5C5.87258 86.8643 0.5 81.4917 0.5 74.8643V12.8643C0.5 6.23684 5.87258 0.864258 12.5 0.864258H358.5C365.127 0.864258 370.5 6.23684 370.5 12.8643V74.8643C370.5 81.4917 365.127 86.8643 358.5 86.8643H198.386Z" fill="#D9D9D9"/>
<path d="M173.212 55.286C173.212 56.8329 174.125 57.5538 175.198 57.5538C175.661 57.5538 176.151 57.4097 176.615 57.1474L196.53 45.5594C197.761 44.8516 198.212 44.3535 198.212 43.5538C198.212 42.7411 197.761 42.2429 196.53 41.5351L176.615 29.9471C176.151 29.6849 175.661 29.5538 175.198 29.5538C174.125 29.5538 173.212 30.2617 173.212 31.8085V55.286Z" fill="white"/>
</svg>
